<svg xmlns="http://www.w3.org/2000/svg" viewBox="0 0 100 100" fill="none">
  <rect width="100" height="100" fill="#e3e3ec" rx="10"/>
  <rect x="10" y="10" width="80" height="80" fill="url(#grad-logo)" rx="8"/>
  <path stroke="#9ca3af" stroke-width="1" stroke-linecap="round" stroke-linejoin="round" fill="none" d="M40 40l9.8-9.8a2 2 0 012.8 0L62 40m-1-1l3.8-3.8a2 2 0 012.8 0L70 38m-22 22h.01M22 78h56a2 2 0 002-2V22a2 2 0 00-2-2H22a2 2 0 00-2 2v54a2 2 0 002 2z"/>
  <defs>
    <linearGradient id="grad-logo" x1="0%" y1="0%" x2="100%" y2="100%">
      <stop offset="0%" style="stop-color:#f3f4f6"/>
      <stop offset="100%" style="stop-color:#e5e7eb"/>
    </linearGradient>
  </defs>
</svg>
